# xmcd
#
# Track frame offsets:
#	150
#	13646
#	31838
#	43733
#	53037
#	64006
#	75355
#	89772
#	102088
#	113470
#	125925
#	136403
#	147858
#	158238
#	169737
#	181529
#	190874
#	202795
#	214482
#	224214
#
# Disc length: 3162 seconds
#
# Revision: 0
# Processed by: cddbd v1.5.2PL0 Copyright (c) Steve Scherf et al.
# Submitted via: EasyCDDAExtractor 16.0.6.1
#
DISCID=1a0c5814
DTITLE=Bobby "Blue" Bland - The Duke Years 1952-1962
DYEAR=2014
DGENRE=Blues
TTITLE0=Farther up the Road
TTITLE1=Stormy Monday Blues
TTITLE2=Little Boy Blue
TTITLE3=Lead Me On
TTITLE4=Who Will the Next Fool Be?
TTITLE5=Call on Me
TTITLE6=I.O.U. Blues
TTITLE7=It s My Life, Baby
TTITLE8=You've Got Bad Intentions
TTITLE9=Woke up Screaming
TTITLE10=Bobby's Blues
TTITLE11=You're the One (That I Adore)
TTITLE12=Hold Me Tenderly
TTITLE13=Two Steps from the Blues
TTITLE14=How Does a Cheating Woman Feel
TTITLE15=Close to You
TTITLE16=Don’t Want No Woman
TTITLE17=You Did Me Wrong
TTITLE18=Teach Me (How to Love You)
TTITLE19=Last Night
EXTD=
EXTT0=
EXTT1=
EXTT2=
EXTT3=
EXTT4=
EXTT5=
EXTT6=
EXTT7=
EXTT8=
EXTT9=
EXTT10=
EXTT11=
EXTT12=
EXTT13=
EXTT14=
EXTT15=
EXTT16=
EXTT17=
EXTT18=
EXTT19=
PLAYORDER=
